HIERARCHY
ROOT Hips
{
	OFFSET 0.000000 97.167313 0.000000
	CHANNELS 6 Xposition Yposition Zposition Xrotation Yrotation Zrotation
	JOINT Spine
	{
		OFFSET 0.000000 13.784798 0.064400
		CHANNELS 3 Xrotation Yrotation Zrotation
		JOINT Spine1
		{
			OFFSET 0.000000 12.037903 0.404700
			CHANNELS 3 Xrotation Yrotation Zrotation
			JOINT Spine2
			{
				OFFSET 0.000000 17.795601 0.420200
				CHANNELS 3 Xrotation Yrotation Zrotation
				JOINT Neck
				{
					OFFSET 0.000000 39.131302 11.954600
					CHANNELS 3 Xrotation Yrotation Zrotation
					JOINT Head
					{
						OFFSET 0.000000 14.456192 15.627699
						CHANNELS 3 Xrotation Yrotation Zrotation
						JOINT HeadTop_End
						{
							OFFSET 0.000000 15.703506 7.603401
							CHANNELS 3 Xrotation Yrotation Zrotation
							End Site
							{
								OFFSET 0.000000 17.447403 0.000000
							}
						}
					}
				}
				JOINT LeftShoulder
				{
					OFFSET 17.399500 24.608795 1.168800
					CHANNELS 3 Xrotation Yrotation Zrotation
					JOINT LeftArm
					{
						OFFSET 18.980635 5.765305 1.818600
						CHANNELS 3 Xrotation Yrotation Zrotation
						JOINT LeftForeArm
						{
							OFFSET 49.290169 0.000000 0.000000
							CHANNELS 3 Xrotation Yrotation Zrotation
							JOINT LeftHand
							{
								OFFSET 31.562012 0.000000 0.000000
								CHANNELS 3 Xrotation Yrotation Zrotation
								JOINT LeftHandThumb1
								{
									OFFSET 6.133995 -4.388519 7.076070
									CHANNELS 3 Xrotation Yrotation Zrotation
									JOINT LeftHandThumb2
									{
										OFFSET 6.037666 -3.485840 3.485847
										CHANNELS 3 Xrotation Yrotation Zrotation
										JOINT LeftHandThumb3
										{
											OFFSET 6.496506 -3.750763 3.750761
											CHANNELS 3 Xrotation Yrotation Zrotation
											JOINT LeftHandThumb4
											{
												OFFSET 5.616882 -3.242905 3.242910
												CHANNELS 3 Xrotation Yrotation Zrotation
												End Site
												{
													OFFSET -1.254608 7.132141 0.375429
												}
											}
										}
									}
								}
								JOINT LeftHandPinky1
								{
									OFFSET 18.920792 -0.453171 -11.426712
									CHANNELS 3 Xrotation Yrotation Zrotation
									JOINT LeftHandPinky2
									{
										OFFSET 4.919586 0.000000 0.000000
										CHANNELS 3 Xrotation Yrotation Zrotation
										JOINT LeftHandPinky3
										{
											OFFSET 5.233047 0.000000 0.000000
											CHANNELS 3 Xrotation Yrotation Zrotation
											JOINT LeftHandPinky4
											{
												OFFSET 5.571716 0.000000 0.000000
												CHANNELS 3 Xrotation Yrotation Zrotation
												End Site
												{
													OFFSET -3.459808 4.342407 -0.466164
												}
											}
										}
									}
								}
								JOINT LeftHandRing1
								{
									OFFSET 22.726120 -0.094986 -6.500475
									CHANNELS 3 Xrotation Yrotation Zrotation
									JOINT LeftHandRing2
									{
										OFFSET 6.408615 0.000000 0.000000
										CHANNELS 3 Xrotation Yrotation Zrotation
										JOINT LeftHandRing3
										{
											OFFSET 6.150223 0.000000 0.000000
											CHANNELS 3 Xrotation Yrotation Zrotation
											JOINT LeftHandRing4
											{
												OFFSET 6.145386 0.000000 0.000000
												CHANNELS 3 Xrotation Yrotation Zrotation
												End Site
												{
													OFFSET -3.671402 4.923981 -0.202372
												}
											}
										}
									}
								}
								JOINT LeftHandMiddle1
								{
									OFFSET 23.373947 0.000000 0.000001
									CHANNELS 3 Xrotation Yrotation Zrotation
									JOINT LeftHandMiddle2
									{
										OFFSET 6.996567 0.000000 0.000000
										CHANNELS 3 Xrotation Yrotation Zrotation
										JOINT LeftHandMiddle3
										{
											OFFSET 7.015945 0.000000 0.000000
											CHANNELS 3 Xrotation Yrotation Zrotation
											JOINT LeftHandMiddle4
											{
												OFFSET 7.721573 0.000000 0.000000
												CHANNELS 3 Xrotation Yrotation Zrotation
												End Site
												{
													OFFSET -4.651108 6.158463 0.251582
												}
											}
										}
									}
								}
								JOINT LeftHandIndex1
								{
									OFFSET 21.310577 -0.490082 6.209344
									CHANNELS 3 Xrotation Yrotation Zrotation
									JOINT LeftHandIndex2
									{
										OFFSET 7.536453 0.000000 0.000000
										CHANNELS 3 Xrotation Yrotation Zrotation
										JOINT LeftHandIndex3
										{
											OFFSET 7.512344 0.000000 0.000000
											CHANNELS 3 Xrotation Yrotation Zrotation
											JOINT LeftHandIndex4
											{
												OFFSET 10.212402 0.000000 0.000001
												CHANNELS 3 Xrotation Yrotation Zrotation
												End Site
												{
													OFFSET -5.180801 8.690506 1.388433
												}
											}
										}
									}
								}
							}
						}
					}
				}
				JOINT RightShoulder
				{
					OFFSET -17.399500 24.608795 1.168800
					CHANNELS 3 Xrotation Yrotation Zrotation
					JOINT RightArm
					{
						OFFSET -18.980635 5.765305 1.818600
						CHANNELS 3 Xrotation Yrotation Zrotation
						JOINT RightForeArm
						{
							OFFSET -49.290169 0.000000 0.000000
							CHANNELS 3 Xrotation Yrotation Zrotation
							JOINT RightHand
							{
								OFFSET -31.562012 0.000000 0.000000
								CHANNELS 3 Xrotation Yrotation Zrotation
								JOINT RightHandThumb1
								{
									OFFSET -6.133995 -4.388519 7.076070
									CHANNELS 3 Xrotation Yrotation Zrotation
									JOINT RightHandThumb2
									{
										OFFSET -6.037666 -3.485840 3.485847
										CHANNELS 3 Xrotation Yrotation Zrotation
										JOINT RightHandThumb3
										{
											OFFSET -6.496506 -3.750763 3.750761
											CHANNELS 3 Xrotation Yrotation Zrotation
											JOINT RightHandThumb4
											{
												OFFSET -5.616882 -3.242905 3.242910
												CHANNELS 3 Xrotation Yrotation Zrotation
												End Site
												{
													OFFSET 1.254608 7.132141 0.375429
												}
											}
										}
									}
								}
								JOINT RightHandIndex1
								{
									OFFSET -21.310577 -0.490082 6.209344
									CHANNELS 3 Xrotation Yrotation Zrotation
									JOINT RightHandIndex2
									{
										OFFSET -7.536453 0.000000 0.000000
										CHANNELS 3 Xrotation Yrotation Zrotation
										JOINT RightHandIndex3
										{
											OFFSET -7.512344 0.000000 0.000000
											CHANNELS 3 Xrotation Yrotation Zrotation
											JOINT RightHandIndex4
											{
												OFFSET -10.212402 0.000000 0.000001
												CHANNELS 3 Xrotation Yrotation Zrotation
												End Site
												{
													OFFSET 5.180801 8.690506 1.388433
												}
											}
										}
									}
								}
								JOINT RightHandMiddle1
								{
									OFFSET -23.373947 0.000000 0.000001
									CHANNELS 3 Xrotation Yrotation Zrotation
									JOINT RightHandMiddle2
									{
										OFFSET -6.996567 0.000000 0.000000
										CHANNELS 3 Xrotation Yrotation Zrotation
										JOINT RightHandMiddle3
										{
											OFFSET -7.015945 0.000000 0.000000
											CHANNELS 3 Xrotation Yrotation Zrotation
											JOINT RightHandMiddle4
											{
												OFFSET -7.721573 0.000000 0.000000
												CHANNELS 3 Xrotation Yrotation Zrotation
												End Site
												{
													OFFSET 4.651108 6.158463 0.251582
												}
											}
										}
									}
								}
								JOINT RightHandRing1
								{
									OFFSET -22.726120 -0.094986 -6.500475
									CHANNELS 3 Xrotation Yrotation Zrotation
									JOINT RightHandRing2
									{
										OFFSET -6.408615 0.000000 0.000000
										CHANNELS 3 Xrotation Yrotation Zrotation
										JOINT RightHandRing3
										{
											OFFSET -6.150223 0.000000 0.000000
											CHANNELS 3 Xrotation Yrotation Zrotation
											JOINT RightHandRing4
											{
												OFFSET -6.145386 0.000000 0.000000
												CHANNELS 3 Xrotation Yrotation Zrotation
												End Site
												{
													OFFSET 3.671402 4.923981 -0.202372
												}
											}
										}
									}
								}
								JOINT RightHandPinky1
								{
									OFFSET -18.920792 -0.453171 -11.426712
									CHANNELS 3 Xrotation Yrotation Zrotation
									JOINT RightHandPinky2
									{
										OFFSET -4.919586 0.000000 0.000000
										CHANNELS 3 Xrotation Yrotation Zrotation
										JOINT RightHandPinky3
										{
											OFFSET -5.233047 0.000000 0.000000
											CHANNELS 3 Xrotation Yrotation Zrotation
											JOINT RightHandPinky4
											{
												OFFSET -5.571716 0.000000 0.000000
												CHANNELS 3 Xrotation Yrotation Zrotation
												End Site
												{
													OFFSET 3.459808 4.342407 -0.466164
												}
											}
										}
									}
								}
							}
						}
					}
				}
			}
		}
	}
	JOINT LeftUpLeg
	{
		OFFSET 19.899099 -7.885101 -3.429500
		CHANNELS 3 Xrotation Yrotation Zrotation
		JOINT LeftLeg
		{
			OFFSET 1.745560 -36.997807 10.304700
			CHANNELS 3 Xrotation Yrotation Zrotation
			JOINT LeftFoot
			{
				OFFSET -1.745558 -29.803308 -13.615400
				CHANNELS 3 Xrotation Yrotation Zrotation
				JOINT LeftToeBase
				{
					OFFSET 1.181900 -18.539904 15.226099
					CHANNELS 3 Xrotation Yrotation Zrotation
					JOINT LeftToe_End
					{
						OFFSET -0.863701 1.402801 16.534700
						CHANNELS 3 Xrotation Yrotation Zrotation
						End Site
						{
							OFFSET 0.000000 16.616566 0.000000
						}
					}
				}
			}
		}
	}
	JOINT RightUpLeg
	{
		OFFSET -19.899099 -7.885101 -3.429500
		CHANNELS 3 Xrotation Yrotation Zrotation
		JOINT RightLeg
		{
			OFFSET -1.745560 -36.997807 10.304700
			CHANNELS 3 Xrotation Yrotation Zrotation
			JOINT RightFoot
			{
				OFFSET 1.745558 -29.803308 -13.615400
				CHANNELS 3 Xrotation Yrotation Zrotation
				JOINT RightToeBase
				{
					OFFSET -1.181900 -18.539904 15.226099
					CHANNELS 3 Xrotation Yrotation Zrotation
					JOINT RightToe_End
					{
						OFFSET 0.863701 1.402801 16.534700
						CHANNELS 3 Xrotation Yrotation Zrotation
						End Site
						{
							OFFSET 0.000000 16.616566 0.000000
						}
					}
				}
			}
		}
	}
}
MOTION
Frames: 4
Frame Time: 0.033333
3.212993 73.818535 1.263359 11.273014 -1.227949 -5.825251 9.983345 1.788333 7.925418 2.029114 -0.047010 0.508498 4.987213 -0.052526 0.186542 -3.841290 -0.341669 -0.277917 -16.135762 0.809280 -3.139612 0.000001 0.000000 0.000000 0.557757 -4.314581 -11.777468 13.923810 -4.817023 -56.121410 -0.000000 -89.999975 0.000009 3.946665 -2.534518 11.903153 -0.820503 6.623777 -5.864563 14.168516 15.386741 18.402799 -0.847659 -39.830453 12.903377 0.000000 -0.000000 -0.000002 7.311302 13.596495 -78.537251 4.413841 5.672399 -75.756954 4.171595 5.605652 -73.291973 -0.000001 0.000000 -0.000002 2.753114 7.678714 -78.443527 5.946891 5.850265 -90.939878 3.878882 5.509753 -70.270195 -0.000002 0.000003 0.000002 4.883463 8.107992 -80.603363 4.657623 5.728469 -78.210802 3.078736 5.154580 -61.676116 -0.000001 -0.000001 0.000008 9.947287 5.735725 -90.836223 4.054217 5.569237 -72.086411 5.462401 5.838170 -86.184816 -0.000000 0.000001 -0.000001 0.567966 4.488694 11.813867 -16.187058 25.518741 44.451155 0.012093 90.272247 -0.012072 7.843993 11.318559 -12.809335 5.535790 -3.771059 -3.032808 2.457529 -9.078652 -15.939556 -8.950767 17.083983 -15.511807 0.000000 0.000000 -0.000000 -3.723537 -3.298311 73.104983 3.463137 -4.501828 75.128495 2.055828 -3.864236 56.013914 -0.000001 0.000001 -0.000001 -3.073231 -4.980228 74.622358 3.766058 -4.571307 78.956994 3.246661 -4.438874 72.351941 -0.000001 0.000003 -0.000004 -3.819527 -5.359652 78.849548 3.124221 -4.398161 70.762829 2.797526 -4.270530 66.441888 -0.000002 0.000002 -0.000003 -1.443993 -6.451673 84.219531 3.515506 -4.515374 75.795094 1.230074 -3.155325 42.587193 0.000001 -0.000001 0.000004 -35.085312 0.618007 6.308737 124.286439 5.278145 -0.891160 -13.602534 2.697870 -3.946432 -0.230050 -0.000003 0.000002 0.000000 0.000001 0.000000 -33.550234 -11.114188 8.022003 58.332356 0.126398 0.893196 -35.581840 2.913275 -7.580456 1.388351 -0.000166 0.157385 0.000000 0.000000 -0.000000 
4.637947 70.406052 17.958691 10.532528 2.927431 -6.423180 8.865064 3.245386 9.327393 1.649031 0.074090 1.086831 4.169054 0.078617 0.812801 -3.918550 -0.951729 0.292631 -15.062797 -3.517367 -4.651963 0.000000 -0.000000 -0.000000 0.603686 -4.874154 -8.992805 12.983961 0.284161 -55.612445 -7.059600 -71.371440 -4.062571 1.493301 -3.225860 2.872982 -0.820498 6.623780 -5.864551 14.168503 15.386724 18.402796 -0.847651 -39.830460 12.903367 0.000005 0.000001 0.000002 7.311297 13.596482 -78.537238 4.413846 5.672402 -75.756948 4.171602 5.605655 -73.291946 -0.000001 0.000003 -0.000004 2.753110 7.678729 -78.443514 5.946883 5.850272 -90.939857 3.878885 5.509747 -70.270188 -0.000003 -0.000004 0.000006 4.883432 8.108007 -80.603356 4.657623 5.728476 -78.210754 3.078740 5.154595 -61.676116 0.000002 0.000001 0.000001 9.947283 5.735749 -90.836216 4.054223 5.569236 -72.086411 5.462417 5.838165 -86.184816 -0.000002 0.000005 -0.000001 0.826282 4.258926 14.177109 -15.261018 23.275015 36.663581 0.000391 82.859210 -0.000392 4.606809 14.906717 -11.666761 5.282280 -4.000819 -3.280866 2.361953 -8.824461 -16.226223 -9.107460 17.792119 -15.451652 -0.000001 -0.000003 0.000002 -3.439768 -3.740457 74.925440 3.536038 -4.520503 76.055290 2.119553 -3.906352 56.954318 -0.000002 -0.000001 -0.000001 -3.143318 -5.164289 76.249493 3.846976 -4.586295 79.970764 3.348616 -4.469915 73.664471 0.000004 0.000003 -0.000004 -4.203515 -5.561354 80.737200 3.186999 -4.419508 71.579146 2.885621 -4.307755 67.619815 -0.000003 0.000001 0.000000 -1.991105 -6.471133 85.832242 3.591297 -4.533823 76.755528 1.265192 -3.193063 43.221512 0.000000 0.000000 0.000004 -85.015863 -1.900454 10.253496 116.292385 9.341803 -3.669153 13.391353 0.977653 1.206876 -0.708630 0.000004 -0.000007 0.000000 0.000002 0.000001 -7.993711 -11.833726 7.339904 55.037323 2.628655 3.363412 -55.576628 2.737185 -8.152031 -0.667773 0.000003 0.000004 0.000000 -0.000000 -0.000000 
6.623674 70.484200 30.170454 8.663470 6.002538 -4.759270 8.036709 5.226645 9.804479 1.452132 0.512537 1.633577 3.475955 0.522826 1.395657 -3.768295 -1.521574 0.809937 -13.515384 -7.568382 -6.068116 -0.000000 -0.000000 -0.000000 0.627683 -5.039670 -7.748505 12.025249 5.155936 -53.011130 -8.432338 -55.909220 -2.598207 -0.237301 -1.265142 -4.196978 -0.820503 6.623784 -5.864567 14.168509 15.386722 18.402790 -0.847634 -39.830450 12.903373 -0.000001 0.000002 0.000001 7.311300 13.596490 -78.537244 4.413844 5.672395 -75.756948 4.171595 5.605659 -73.291953 -0.000002 -0.000000 -0.000004 2.753111 7.678714 -78.443507 5.946870 5.850272 -90.939871 3.878884 5.509753 -70.270209 0.000000 -0.000001 0.000003 4.883438 8.108004 -80.603363 4.657613 5.728464 -78.210754 3.078736 5.154597 -61.676137 -0.000002 0.000000 0.000004 9.947276 5.735745 -90.836229 4.054211 5.569240 -72.086404 5.462408 5.838181 -86.184816 -0.000002 0.000001 0.000001 0.924826 4.389028 15.916791 -16.668479 17.583214 29.067707 0.000041 72.534922 0.000008 1.023810 19.110912 -10.901116 4.926048 -4.318796 -3.631151 2.228645 -8.467569 -16.626337 -9.332205 18.782523 -15.363034 -0.000002 -0.000001 0.000002 -3.009800 -4.330371 77.480737 3.638573 -4.544637 77.352828 2.209892 -3.963523 58.271001 -0.000001 0.000002 0.000002 -3.234279 -5.432298 78.526890 3.960716 -4.604903 81.390132 3.492473 -4.509483 75.502120 -0.000000 0.000000 -0.000008 -4.733707 -5.891706 83.374214 3.275359 -4.447863 72.722055 3.010222 -4.356824 69.269087 0.000000 -0.000003 0.000005 -2.770565 -6.699264 88.053610 3.700240 -4.558011 78.129926 1.314921 -3.245091 44.107203 -0.000000 0.000001 0.000002 -94.066410 3.004831 6.184798 88.691304 15.126272 -3.974572 15.661463 6.111139 1.109831 -0.774572 0.000001 0.000005 -0.000001 0.000003 -0.000001 12.683704 -13.951418 5.855370 41.993188 1.447138 3.799924 -57.666386 1.947064 -6.599451 -8.148342 0.000007 0.000002 -0.000000 0.000001 -0.000000 
9.639383 73.753319 42.084290 3.852596 8.787751 -1.663419 7.881078 6.510303 10.128149 1.648396 1.071596 2.265894 3.155253 1.089854 2.068157 -2.852622 -1.969173 1.360086 -9.659453 -10.880247 -6.489000 0.000000 0.000000 -0.000000 0.625321 -4.821491 -7.423251 10.765020 9.064985 -48.015117 -5.290722 -45.096946 -1.169573 -1.407957 1.666078 -9.651326 -0.820505 6.623786 -5.864569 14.168517 15.386714 18.402773 -0.847644 -39.830453 12.903386 0.000000 0.000001 -0.000002 7.311301 13.596493 -78.537231 4.413841 5.672393 -75.756954 4.171594 5.605656 -73.291960 0.000000 0.000001 -0.000000 2.753111 7.678721 -78.443527 5.946882 5.850273 -90.939878 3.878876 5.509749 -70.270168 -0.000000 0.000000 0.000003 4.883432 8.108005 -80.603356 4.657614 5.728469 -78.210754 3.078730 5.154598 -61.676103 -0.000001 -0.000001 0.000001 9.947278 5.735746 -90.836243 4.054221 5.569247 -72.086390 5.462407 5.838165 -86.184795 -0.000000 0.000001 0.000001 0.884998 4.917087 18.009812 -20.791238 7.273258 21.848797 0.000050 61.142419 -0.000032 1.018887 23.608504 -12.526003 5.078899 -4.183046 -3.480600 2.285711 -8.620645 -16.455020 -9.235083 18.358181 -15.401657 0.000003 0.000000 0.000002 -3.198631 -4.081805 76.384649 3.594565 -4.534578 76.796728 2.171010 -3.939263 57.706677 -0.000001 -0.000003 -0.000001 -3.196373 -5.315972 77.550945 3.911919 -4.597277 80.781808 3.430644 -4.493092 74.714531 -0.000004 0.000002 -0.000001 -4.507737 -5.743268 82.244924 3.237417 -4.435929 72.232249 2.956658 -4.336229 68.562211 -0.000000 0.000001 -0.000005 -2.437034 -6.593555 87.104508 3.653302 -4.547905 77.538753 1.293541 -3.222910 43.727978 -0.000000 0.000002 0.000001 -75.439979 5.869245 0.052565 52.362153 15.348313 -4.583278 6.826596 14.737644 3.939946 -0.708872 0.000030 -0.000002 -0.000000 0.000002 0.000000 33.277973 -16.769354 6.047589 23.140032 -3.232524 1.375028 -46.214706 -0.007487 -4.006884 -17.790911 0.000002 -0.000004 0.000001 0.000001 0.000000 
